<svg width="800" height="920" viewBox="0 0 800 920" fill="none" xmlns="http://www.w3.org/2000/svg">
<path d="M52 120C52 115.582 55.5817 112 60 112H740C744.418 112 748 115.582 748 120V182H52V120Z" fill="#D1D6DA" stroke="#D1D6DA" stroke-width="4"/>
<rect x="84" y="124" width="80" height="32" rx="16" fill="#99A3AE"/>
<rect x="636" y="134" width="80" height="24" rx="4" fill="#99A3AE"/>
<rect x="646" y="142" width="60" height="8" rx="4" fill="#E0E3E6"/>
<rect x="95" y="134" width="58" height="12" rx="6" fill="#E0E3E6"/>
<rect x="84" y="162" width="80" height="8" rx="4" fill="#99A3AE"/>
<rect x="300" y="140" width="40" height="12" rx="6" fill="#99A3AE"/>
<rect x="356" y="140" width="40" height="12" rx="6" fill="#99A3AE"/>
<rect x="412" y="140" width="40" height="12" rx="6" fill="#99A3AE"/>
<rect x="468" y="140" width="40" height="12" rx="6" fill="#99A3AE"/>
<rect x="524" y="140" width="40" height="12" rx="6" fill="#99A3AE"/>
<rect x="580" y="140" width="40" height="12" rx="6" fill="#99A3AE"/>
<rect x="54" y="640" width="694" height="112" fill="#99A3AE"/>
<rect x="100" y="672" width="194" height="22" rx="11" fill="#E6E8EA"/>
<rect x="580" y="676" width="120" height="40" rx="20" fill="#E6E8EA"/>
<rect x="100" y="710" width="176" height="12" rx="6" fill="#E6E8EA"/>
<rect x="284" y="710" width="72" height="12" rx="6" fill="#E6E8EA"/>
<rect x="364" y="710" width="72" height="12" rx="6" fill="#E6E8EA"/>
<rect x="52" y="112" width="696" height="696" rx="8" stroke="#99A3AE" stroke-width="4"/>
</svg>
